# xmcd CD database file
#
# Track frame offsets:
#	150
#	20818
#	33640
#	45115
#	58333
#	70905
#	85115
#	98055
#	111113
#	125933
#	138883
#	153738
#	170190
#	181868
#	200383
#
# Disc length: 2805 seconds
#
# Revision: 3
# Processed by: cddbd v1.5.1PL0 Copyright (c) Steve Scherf et al.
# Submitted via: CDex 1.51
#
DISCID=d60af30f
DTITLE=Merle Haggard - His Greatest And His Best
DYEAR=1985
DGENRE=Country
TTITLE0=I Think I'll Just Stay Here And Drink
TTITLE1=I'm Always On A Mountain When I Fall
TTITLE2=Red Bandana
TTITLE3=The Way I Am
TTITLE4=It's Been A Great Afternoon
TTITLE5=Ramblin' Fever
TTITLE6=Misery And Gin
TTITLE7=My Own Kind Of Hat
TTITLE8=If We're Not Back In Love By Monday
TTITLE9=Rainbow Stew
TTITLE10=When My Blue Moon Turns To Gold Again
TTITLE11=Leonard
TTITLE12=Back To The Barrooms Again
TTITLE13=Wake Up
TTITLE14=The Running Kind
EXTD=YEAR: 1985
EXTT0=
EXTT1=
EXTT2=
EXTT3=
EXTT4=
EXTT5=
EXTT6=
EXTT7=
EXTT8=
EXTT9=
EXTT10=
EXTT11=
EXTT12=
EXTT13=
EXTT14=
PLAYORDER=
